<svg width="667" height="667" viewBox="0 0 667 667" fill="none" xmlns="http://www.w3.org/2000/svg">
<g id="g12">
<path id="path14" d="M0 666.667H666.667V0.000121117H0V666.667Z" fill="#FBFDFE"/>
<path id="path16" d="M620.908 406.113L599.885 553.726H65.3307L49.5437 441.117C47.788 428.501 54.7631 416.275 66.5339 411.38L113.977 391.692V344.508C113.977 330.607 124.155 318.82 137.911 316.82L149.128 315.177L167.972 251.46C171.484 239.557 182.411 231.413 194.8 231.413H387.547C394.879 231.413 401.593 234.241 406.601 238.892C411.609 243.559 414.911 250.045 415.447 257.361L507.227 267.052C520.852 268.499 531.42 279.571 532.233 293.245L535.94 356.915L600.796 375.237C614.291 379.041 622.875 392.244 620.908 406.113" fill="#DDECF1"/>
<path id="path18" d="M97.3792 436.556L114.066 553.726H538.373L550.905 464.343C552.3 454.327 546.763 444.623 537.419 440.739L499.76 425.109V387.657C499.76 376.624 491.683 367.267 480.764 365.68L471.859 364.376L456.901 313.799C454.113 304.352 445.441 297.887 435.607 297.887H282.612C276.792 297.887 271.463 300.132 267.487 303.823C263.512 307.527 260.892 312.676 260.467 318.484L187.615 326.175C176.8 327.324 168.411 336.112 167.765 346.967L164.823 397.504L113.343 412.048C102.631 415.069 95.8172 425.548 97.3792 436.556" fill="#CFDCE4"/>
<path id="path20" d="M447.429 510.065C447.429 497.436 438.183 486.728 425.688 484.911L415.496 483.419L398.376 425.533C395.187 414.723 385.26 407.323 374.005 407.323H198.904C192.243 407.323 186.141 409.892 181.593 414.117C177.044 418.356 174.045 424.249 173.557 430.896L97.7473 438.9L114.101 553.726H449.351L447.429 552.928V510.065" fill="#BDD0D8"/>
<path id="path22" d="M160.308 253.563H290.381V132.158H160.308V253.563Z" fill="#192941"/>
<path id="path24" d="M160.308 144.997H290.381V132.158H160.308V144.997Z" fill="#2C4666"/>
<path id="path26" d="M262.264 138.723C262.264 140.023 261.211 141.077 259.912 141.077C258.611 141.077 257.557 140.023 257.557 138.723C257.557 137.423 258.611 136.369 259.912 136.369C261.211 136.369 262.264 137.423 262.264 138.723Z" fill="#010444"/>
<path id="path28" d="M272.092 138.723C272.092 140.023 271.039 141.077 269.739 141.077C268.439 141.077 267.385 140.023 267.385 138.723C267.385 137.423 268.439 136.369 269.739 136.369C271.039 136.369 272.092 137.423 272.092 138.723Z" fill="#F8CF3E"/>
<path id="path30" d="M281.217 138.971C281.217 140.271 280.164 141.324 278.864 141.324C277.564 141.324 276.511 140.271 276.511 138.971C276.511 137.671 277.564 136.617 278.864 136.617C280.164 136.617 281.217 137.671 281.217 138.971Z" fill="#F46B6F"/>
<g id="code">
<path id="code21" d="M201.86 158.481H183.437V156.933H201.86V158.481Z" fill="#F46B6F"/>
<path id="code20" d="M223.483 158.481H205.06V156.933H223.483V158.481" fill="#F8CF3E"/>
<path id="code19" d="M217.703 166.823H189.136V165.275H217.703V166.823Z" fill="#010444"/>
<path id="code18" d="M236.948 166.823H222.427V165.275H236.948V166.823" fill="#F46B6F"/>
<path id="code17" d="M211.592 175.164H199.045V173.615H211.592V175.164Z" fill="#F8CF3E"/>
<path id="code16" d="M260.468 175.164H218.844V173.615H260.468V175.164Z" fill="#F8CF3E"/>
<path id="code15" d="M256.36 183.504H208.791V181.956H256.36V183.504Z" fill="#010444"/>
<path id="code14" d="M211.537 191.845H196.897V190.297H211.537V191.845Z" fill="#F46B6F"/>
<path id="code13" d="M232.441 191.845H217.801V190.297H232.441V191.845Z" fill="#010444"/>
<path id="code12" d="M204.736 233.572H183.437V235.12H204.736V233.572Z" fill="#F46B6F"/>
<path id="code11" d="M233.492 233.572H212.195V235.12H233.492V233.572Z" fill="#F8CF3E"/>
<path id="code10" d="M261.475 233.572H240.177V235.12H261.475V233.572Z" fill="#F46B6F"/>
<path id="code09" d="M230.759 225.231H189.136V226.779H230.759V225.231Z" fill="#010444"/>
<path id="code08" d="M278.871 225.231H237.249V226.779H278.871V225.231Z" fill="#F46B6F"/>
<path id="code07" d="M240.349 216.889H199.045V218.437H240.349V216.889Z" fill="#F46B6F"/>
<path id="code06" d="M255.447 216.889H243.951V218.437H255.447V216.889Z" fill="#F8CF3E"/>
<path id="code05" d="M211.897 208.548H196.348V210.096H211.897V208.548Z" fill="#F8CF3E"/>
<path id="code04" d="M235.704 208.548H220.155V210.096H235.704V208.548" fill="#010444"/>
<path id="code03" d="M261.253 208.548H245.704V210.096H261.253V208.548Z" fill="#F46B6F"/>
<path id="code02" d="M236.176 200.207H214.372V201.756H236.176V200.207Z" fill="#F8CF3E"/>
<path id="code01" d="M206.147 200.207H184.344V201.756H206.147V200.207Z" fill="#010444"/>
</g>
<path id="path74" d="M173.361 157.428H171.38V155.445H173.361V157.428Z" fill="#FBFDFE"/>
<path id="path76" d="M173.361 167.533H171.38V163.492H173.361V167.533ZM173.361 177.639H171.38V173.597H173.361V177.639ZM173.361 187.745H171.38V183.703H173.361V187.745ZM173.361 197.851H171.38V193.808H173.361V197.851ZM173.361 207.956H171.38V203.915H173.361V207.956ZM173.361 218.063H171.38V214.021H173.361V218.063ZM173.361 228.168H171.38V224.127H173.361V228.168Z" fill="#FBFDFE"/>
<path id="path78" d="M173.361 236.215H171.38V234.232H173.361V236.215Z" fill="#FBFDFE"/>
<path id="path80" d="M425.475 172.387H318.368V106.367H425.475V172.387" fill="#F46B6F"/>
<path id="path82" d="M359.967 132.92L347.223 138.36L359.967 143.719L358.299 147.568L343.016 140.741V136.017L358.299 129.149L359.967 132.92" fill="#FBFDFE"/>
<path id="path84" d="M378.747 120.337L369.497 155.865L365.091 154.833L374.38 119.345L378.747 120.337Z" fill="#FBFDFE"/>
<path id="path86" d="M400.861 136.017V140.741L385.579 147.568L383.912 143.719L396.615 138.36L383.912 132.92L385.579 129.149L400.861 136.017" fill="#FBFDFE"/>
<path id="path88" d="M482.801 277.728H421.797V234.267H482.801V277.728Z" fill="#010444"/>
<path id="path90" d="M447.315 243.649C445.353 243.649 444.697 244.179 444.697 245.643V252.184C444.697 254.739 443.639 255.517 441.863 256.016C443.639 256.483 444.697 257.261 444.697 259.784V266.325C444.697 267.789 445.384 268.319 447.315 268.319V271.185C442.361 271.185 440.96 269.596 440.96 266.295V260.096C440.96 258.32 440.493 257.635 438.873 257.635V254.364C440.493 254.364 440.96 253.648 440.96 251.872V245.673C440.96 242.341 442.361 240.784 447.315 240.784V243.649" fill="#F4F6F5"/>
<path id="path92" d="M463.637 245.673V251.872C463.637 253.648 464.104 254.364 465.755 254.364V257.635C464.104 257.635 463.637 258.32 463.637 260.096V266.295C463.637 269.596 462.236 271.185 457.284 271.185V268.319C459.215 268.319 459.9 267.789 459.9 266.325V259.784C459.9 257.261 460.959 256.483 462.735 256.016C460.959 255.517 459.9 254.739 459.9 252.184V245.643C459.9 244.179 459.247 243.649 457.284 243.649V240.784C462.236 240.784 463.637 242.341 463.637 245.673" fill="#F4F6F5"/>
<path id="path94" d="M187.351 161.611H118.911V115.835H187.351V161.611" fill="#F8CF3E"/>
<path id="path96" d="M155.979 141.576C152.881 144.672 147.843 144.672 144.745 141.575C141.648 138.477 141.648 133.44 144.745 130.343C147.843 127.245 152.881 127.245 155.979 130.343C159.076 133.44 159.076 138.479 155.979 141.576ZM141.561 128.975C138.293 133.065 138.344 139.04 141.673 143.08C145.456 147.669 151.936 148.409 156.592 145.305L163.776 152.488C164.079 152.791 164.569 152.791 164.873 152.488L166.891 150.469C167.195 150.167 167.195 149.675 166.891 149.372L159.708 142.189C162.617 137.827 162.151 131.861 158.305 128.016C153.625 123.336 145.812 123.656 141.561 128.975" fill="#FBFDFE"/>
<g id="g98">
<g id="g100">
<path id="path112" d="M386.433 257.229C386.285 258.741 384.219 274.528 367.985 274.528C350.944 274.528 353.799 257.655 353.799 257.655L353.777 257.549C355.439 257.208 357.228 257.08 359.124 257.293V249.305L378.468 238.483H379.171V257.123C379.171 257.123 382.237 256.76 386.433 257.229" fill="url(#paint0_radial_4_4)"/>
</g>
</g>
<g id="g114">
<g id="g116">
<path id="path128" d="M377.039 202.823C379.783 205.604 381.856 209.203 382.853 213.601C384.712 221.796 382.964 230.467 380.585 238.364C380.18 239.716 379.717 241.079 378.883 242.216C378.288 243.027 377.521 243.695 376.761 244.356C373.321 247.352 369.881 250.349 366.449 253.355C364.121 255.391 349.797 257.088 347.063 255.135C336.528 247.601 334.5 225.777 336.608 214.619C340.107 196.109 363.897 189.492 377.039 202.823Z" fill="url(#paint1_radial_4_4)"/>
</g>
</g>
<path id="path130" d="M371.123 226.509C371.263 224.728 373.095 222.777 374.933 223.933C376.837 225.131 376.389 228.295 375.6 230.035C374.981 231.401 372.913 232.896 371.511 231.627C370.337 230.561 372.161 229.307 372.221 228.335C372.276 227.46 370.527 226.833 371.243 225.897" fill="#F7A388"/>
<path id="path132" d="M371.46 234.748C373.38 235.324 376.633 233.86 377.456 231.185C378.279 228.511 378.191 225.457 378.191 225.457C378.191 225.457 379.157 227.879 378.66 231.775C378.163 235.669 376.799 239.38 373.741 239.429C370.684 239.477 371.46 234.748 371.46 234.748Z" fill="#F7A388"/>
<path id="path134" d="M369.104 231.976L368.889 232.04C367.7 232.207 367.225 230.768 367.049 229.868C366.637 227.765 366.701 225.637 366.629 223.511C366.612 222.977 366.653 222.312 366.435 221.811C365.767 220.281 363.987 219.288 363.444 217.708C362.812 215.871 364.596 214.037 363.888 212.027C362.805 208.945 358.848 208.237 355.987 208.271C351.693 208.321 347.507 209.117 343.269 209.775C338.796 210.469 333.079 211.128 329.137 208.299C324.385 204.889 322.401 196.003 325.947 191.139C327.879 188.485 331.544 187.073 334.755 187C338.159 186.921 341.035 188.951 344.157 189.972C346.644 190.785 349.049 188.407 351.373 187.943C354.296 187.359 355.536 190.548 358.121 190.635C360.632 190.72 363.095 188.759 365.536 188.313C370.404 187.424 370.117 192.313 373.383 193.983C375.413 195.021 378.035 194.392 380.088 195.447C381.648 196.248 381.867 197.656 382.207 199.251C382.501 200.631 382.517 202.223 382.972 203.533C383.38 204.712 384.369 205.456 385.141 206.377C385.984 207.384 386.523 208.557 386.949 209.819C387.897 212.616 388.108 215.633 387.849 218.561C387.416 223.476 385.833 228.315 384.192 232.944C383.127 235.947 382.731 239.075 381.092 241.917C380.652 242.681 378.697 244.913 377.971 243.251C377.815 242.895 377.839 242.489 377.865 242.101C378.083 239.004 380.965 219.052 373.407 221.448C371.82 221.952 370.756 223.272 370.164 224.777C369.457 226.58 369.408 228.395 369.497 230.299C369.511 230.571 369.517 230.844 369.507 231.116C369.493 231.468 369.405 231.825 369.104 231.976" fill="#38397C"/>
<path id="path136" d="M359.124 255.465C367.719 254.084 373.389 247.295 373.389 247.295C373.389 247.295 371.072 258.736 358.608 259.341L359.124 255.465" fill="#F7A388"/>
<path id="path138" d="M373.232 411.427H385.533V529.461C385.533 530.657 384.563 531.629 383.365 531.629H375.4C374.201 531.629 373.232 530.657 373.232 529.461V411.427Z" fill="#16202D"/>
<path id="path140" d="M345.555 413.115H413.211V414.961C413.211 419.611 409.441 423.38 404.792 423.38H353.973C349.324 423.38 345.555 419.611 345.555 414.961V413.115" fill="#2F415B"/>
<path id="path142" d="M373.232 517.635H385.533V544.985C385.533 546.183 384.563 547.153 383.365 547.153H375.4C374.201 547.153 373.232 546.183 373.232 544.985V517.635Z" fill="#16202D"/>
<path id="path144" d="M315.543 539.953C315.543 543.929 318.767 547.153 322.744 547.153C326.719 547.153 329.943 543.929 329.943 539.953C329.943 535.976 326.719 532.753 322.744 532.753C318.767 532.753 315.543 535.976 315.543 539.953Z" fill="#16202D"/>
<path id="path146" d="M428.821 539.953C428.821 543.929 432.045 547.153 436.023 547.153C439.999 547.153 443.223 543.929 443.223 539.953C443.223 535.976 439.999 532.753 436.023 532.753C432.045 532.753 428.821 535.976 428.821 539.953Z" fill="#16202D"/>
<path id="path148" d="M367.008 530.093H391.757V508.467H367.008V530.093Z" fill="#2F415B"/>
<path id="path150" d="M315.543 535.183H443.223V532.673C443.223 528.437 439.789 525.005 435.553 525.005H323.211C318.976 525.005 315.543 528.437 315.543 532.673V535.183" fill="#F8CF3E"/>
<path id="path152" d="M379.383 506.536H375.116V425.805H379.383V506.536Z" fill="#2F415B"/>
<path id="path154" d="M427.715 325.871C424.763 325.777 422.363 328.221 422.533 331.169C423.377 345.823 420.272 381.569 406.624 393.765C389.936 408.679 342.639 406.647 342.639 406.647C342.639 406.647 334.827 416.233 350.449 418.363C366.072 420.493 410.097 419.075 420.749 409.133C431.059 399.509 437.18 374.297 432.567 330.415C432.303 327.899 430.245 325.949 427.715 325.871" fill="#F8CF3E"/>
<g id="g156">
<g id="g158">
<path id="path170" d="M339.099 506.536L344.723 519.361L327.489 526.924L321.844 514.057L339.099 506.536" fill="url(#paint2_radial_4_4)"/>
</g>
</g>
<path id="path172" d="M420.369 363.999C419.305 366.131 342.732 364.041 335.499 364.701C335.499 364.701 288.633 387.071 281.901 408.011C281.219 410.12 281.028 412.911 281.241 416.235C283.115 445.717 316.689 516.315 316.689 516.315L321.844 514.057L339.099 506.536L341.549 505.472C341.549 505.472 314.92 426.119 320.247 421.859C325.572 417.597 385.923 406.947 406.863 401.28C427.825 395.591 420.369 363.999 420.369 363.999Z" fill="#010444"/>
<g id="g174">
<g id="g176">
<path id="path188" d="M273.397 509.836L274.744 529.103H255.932L254.585 509.793L273.397 509.836Z" fill="url(#paint3_radial_4_4)"/>
</g>
</g>
<path id="path190" d="M335.116 364.041L334.433 364.34C334.433 364.34 255.975 375.355 243.195 397.36C234.885 411.675 250.967 516.279 250.967 516.279L278.724 516.343C278.724 516.343 274.573 429.207 275.957 424.351C277.513 418.811 280.176 416.808 281.241 416.235C281.028 412.911 281.219 410.12 281.901 408.011C288.633 387.071 335.499 364.701 335.499 364.701C335.351 364.596 335.221 364.361 335.116 364.041Z" fill="#010444"/>
<path id="path192" d="M410.897 291.548L405.636 292.272C405.636 292.272 404.357 306.46 401.225 320.648L335.677 345.529L334.781 350.28C334.505 350.259 334.228 350.237 333.972 350.216C333.993 351.196 333.993 352.155 334.036 353.049C334.185 358.525 334.547 362.465 335.123 364.041C335.229 364.361 335.357 364.596 335.507 364.701C337.287 366.153 360.471 363.34 385.533 372.543C407.271 380.525 419.455 389.243 420.017 388.072C426.849 373.869 414.412 318.135 410.897 291.548Z" fill="#F46B6F"/>
<path id="path194" d="M404.059 324.056C402.312 332.449 397.796 349.151 388.933 351.388C377.365 354.328 354.999 354.179 334.036 353.049C333.993 352.155 333.993 351.196 333.972 350.216C334.228 350.237 334.505 350.259 334.781 350.28L335.677 345.529L401.225 320.648C404.357 306.46 405.636 292.272 405.636 292.272C405.636 292.272 405.636 292.357 405.656 292.507C405.784 294.701 406.679 311.659 404.059 324.056" fill="#F14B53"/>
<g id="brazo__der">
<path id="path198" d="M330.323 334.687C319.011 336.645 308.615 338.329 308.615 338.329L308.593 338.883C296.004 328.828 276.852 300.347 276.852 300.347C276.852 300.347 282.583 293.465 284.011 291.655C284.223 291.377 315.453 312.872 317.051 312.68C317.456 312.639 319.053 309.827 321.184 305.651L334.584 318.156C334.369 323.545 334.199 328.913 334.092 334.004C332.836 334.239 331.58 334.452 330.323 334.687" fill="#F7A388"/>
<path id="path216" d="M283.753 291.441L284.011 291.655C282.583 293.465 276.852 300.347 276.852 300.347L273.295 297.833C273.295 297.833 269.375 300.219 264.816 297.725C260.065 295.148 263.005 288.993 263.249 288.264C262.328 288.524 256.636 293.124 255.741 292.635C254.847 292.144 254.187 290.525 260.555 284.241C266.904 277.957 275.552 286.031 275.808 286.031L283.753 291.441Z" fill="#F7A388"/>
<path id="path218" d="M265.557 296.657C265.557 296.657 264.184 299.228 266.625 300.347C269.067 301.464 273.816 302.271 275.857 302.075C277.897 301.877 279.52 299.023 279.52 299.023L273.34 293.224H268.4L265.557 296.657" fill="#F7A388"/>
<path id="path220" d="M265.192 297.92C265.557 296.657 269.067 297.331 271.241 297.383C272.844 297.42 273.721 297 274.216 295.779C274.712 294.559 272.385 292.613 271.928 293.224C271.471 293.833 272.767 294.693 272.805 295.503C272.844 296.313 270.517 296.581 268.724 296.581C266.931 296.581 263.837 297.048 263.837 297.048L265.192 297.92" fill="#E9896F"/>
<path id="path196" d="M338.355 270.608C337.183 272.737 335.499 295.532 334.584 318.156L321.184 305.651C326.871 294.637 338.355 270.608 338.355 270.608Z" fill="#F14B53"/>
</g>
<path id="path238" d="M364.513 320.924L397.895 332.748L396.384 337.208L363.345 323.036L364.513 320.924" fill="#F7A388"/>
<path id="path240" d="M364.513 320.924C362.084 325.463 359.485 328.871 356.909 329.553C353.011 330.575 343.593 332.343 334.092 334.004C334.199 328.913 334.369 323.545 334.583 318.156C335.499 295.532 337.183 272.737 338.355 270.608C340.271 267.049 345.512 259.317 353.777 257.549L353.799 257.655C353.799 257.655 350.944 274.528 367.985 274.528C384.219 274.528 386.285 258.741 386.433 257.229C394.785 258.167 407.588 262.341 409.356 279.128C409.719 282.452 410.229 286.712 410.889 291.548L405.628 292.272C405.628 292.272 403.497 315.919 398.024 332.684L397.895 332.748L364.513 320.924" fill="#F46B6F"/>
<path id="path242" d="M367.679 319.152L364.168 317.848L377.497 285.581L367.679 319.152Z" fill="#F7978B"/>
<path id="path244" d="M386.433 257.229H379.171C379.171 257.229 368.832 268.58 362.188 268.58C355.541 268.58 359.124 257.293 359.124 257.293H355.881C346.569 257.293 338.732 264.287 337.677 273.54C337.557 274.6 337.447 275.605 337.353 276.515C336.641 283.381 364.459 288.379 364.459 288.379L378.781 287.577L387.479 270.608L389.212 263.659L386.433 257.229Z" fill="#F46B6F"/>
<path id="path246" d="M298.777 541.686C299.424 545.155 301.831 547.622 305.301 546.975L351.569 538.345C352.74 538.127 353.511 537.002 353.293 535.831L352.528 531.725C352.528 531.725 303.865 540.241 298.753 541.659L298.777 541.686" fill="#F4F6F5"/>
<path id="path248" d="M312.543 530.035C313.025 529.616 313.489 529.2 313.972 528.783C314.9 527.952 315.813 527.143 316.693 526.36C317.156 525.945 317.621 525.529 318.051 525.139C318.896 524.383 319.692 523.673 320.405 523.036C320.917 522.575 321.397 522.137 321.828 521.747C322.619 521.037 323.264 520.46 323.717 520.053C324.109 519.703 324.692 519.687 325.093 520.025C326.996 521.624 333.143 525.28 344.279 518.391C344.805 518.064 345.507 518.235 345.793 518.785L352.528 531.725C352.528 531.725 303.865 540.241 298.753 541.659C300.435 540.61 306.645 535.236 312.543 530.035" fill="#010444"/>
<path id="path250" d="M225.909 541.231C225.995 544.76 227.976 547.58 231.507 547.492L278.559 546.344C279.749 546.315 280.691 545.327 280.661 544.138L280.559 539.963C280.559 539.963 231.163 540.616 225.891 541.202L225.909 541.231" fill="#F4F6F5"/>
<path id="path252" d="M241.355 531.923C241.899 531.585 242.421 531.251 242.965 530.915C244.015 530.241 245.044 529.588 246.036 528.956C246.561 528.62 247.085 528.284 247.573 527.968C248.528 527.355 249.425 526.781 250.232 526.267C250.812 525.891 251.355 525.535 251.841 525.22C252.735 524.645 253.465 524.177 253.976 523.849C254.419 523.565 254.997 523.641 255.341 524.04C256.964 525.921 262.451 530.511 274.54 525.483C275.113 525.245 275.777 525.525 275.972 526.115L280.559 539.963C280.559 539.963 231.163 540.616 225.891 541.202C227.716 540.433 234.704 536.117 241.355 531.923" fill="#010444"/>
<path id="path254" d="M192.439 349.796L167.309 282.777H238.849L263.976 349.796H192.439Z" fill="#A9B4B8"/>
<path id="path256" d="M268.4 349.796H263.976L238.849 282.777L242.864 282.956L266.107 343.617L268.4 349.796" fill="#7F939F"/>
<path id="path258" d="M267.012 349.796H314.283L314.153 345.571C314.153 345.571 266.833 345.571 266.044 345.571" fill="#7F939F"/>
<path id="path260" d="M468.403 549.555H457.021V362.577H468.403V549.555Z" fill="#7F939F"/>
<path id="path262" d="M406.624 549.555H395.243V362.577H406.624V549.555Z" fill="#A9B4B8"/>
<path id="path264" d="M208.704 549.555H197.324V362.577H208.704V549.555Z" fill="#7F939F"/>
<path id="path266" d="M146.928 549.555H135.547V362.577H146.928V549.555Z" fill="#A9B4B8"/>
<path id="path268" d="M479.792 363.287H124.644C121.589 363.287 119.112 360.809 119.112 357.755V355.327C119.112 352.272 121.589 349.796 124.644 349.796H479.792C482.847 349.796 485.323 352.272 485.323 355.327V357.755C485.323 360.809 482.847 363.287 479.792 363.287Z" fill="#202450"/>
<path id="path270" d="M179.255 289.821L180.479 293.084H194.729L193.505 289.821H179.255" fill="#7F939F"/>
<path id="path272" d="M321.184 305.651L320.16 307.627L334.584 322.532V318.156L321.184 305.651Z" fill="#E9896F"/>
<path id="path274" d="M615.547 560.302H39.6593V547.151H615.547V560.302Z" fill="#A4B7C7"/>
<g id="g276">
<g id="g278">
<path id="path290" d="M524.244 449.62C521.957 460.72 522.645 479.628 507.961 482.623C504.007 483.428 500.187 480.688 497.888 477.547C494.88 473.436 494.16 464.736 494.212 459.759C494.253 455.815 495.599 451.417 496.031 447.437C496.5 443.14 496.88 438.833 497.381 434.539C499.188 419.061 507.273 406.089 520.949 398.363C522.008 403.444 524.42 407.744 526.548 412.623C527.519 414.847 528.393 417.192 529.025 419.523C530.143 423.649 528.791 427.82 527.787 431.773C526.303 437.617 525.463 443.708 524.244 449.62" fill="url(#paint4_linear_4_4)"/>
</g>
</g>
<path id="path292" d="M505.475 482.996C505.58 482.065 505.695 481.135 505.817 480.204C507.572 480.199 509.399 479.201 510.871 478.439C513.425 477.115 515.497 475.216 517.504 473.187L517.316 472.999C515.315 474.68 513.24 476.308 510.859 477.419C509.529 478.037 507.588 479.049 505.951 479.247C506.105 478.135 506.276 477.027 506.46 475.919C508.287 475.695 509.961 474.495 511.508 473.577C514.137 472.017 516.399 469.999 518.743 468.053L518.709 468.012C515.124 470.616 511.129 474.323 506.592 475.135C506.833 473.748 507.087 472.364 507.379 470.991L507.424 470.776C512.675 469.448 516.225 465.331 520.245 462.003L520.172 461.891C516.213 464.965 512.493 468.472 507.6 469.965C508.025 467.999 508.467 466.039 508.911 464.083C513.66 462.329 517.453 459.547 520.773 455.671L520.677 455.577C517.241 459.153 513.457 461.207 509.1 463.243C509.539 461.305 509.975 459.367 510.388 457.423C512.443 456.413 514.604 455.799 516.501 454.469C518.373 453.159 520.053 451.596 521.259 449.645L521.1 449.544C518.443 453.365 514.436 454.555 510.564 456.564C510.941 454.752 511.293 452.936 511.608 451.109C515.923 448.733 520.612 446.531 523.057 441.977L522.991 441.932C520.4 446.116 515.872 447.917 511.761 450.195C511.815 449.869 511.875 449.547 511.925 449.22C512.191 447.527 512.437 445.829 512.681 444.135C515.16 443.14 517.524 441.739 519.755 440.285C521.339 439.253 523.029 438.232 524.067 436.613L523.913 436.505C521.599 439.821 516.529 441.739 512.787 443.397C513.029 441.684 513.271 439.971 513.515 438.256C517.668 435.743 522.556 434.353 525.112 429.821C525.188 429.688 524.991 429.564 524.907 429.695C522.259 433.832 517.599 435.108 513.629 437.456C513.781 436.395 513.936 435.333 514.096 434.273C518.583 432.624 523.799 428.868 526.164 424.813C526.295 424.589 525.972 424.383 525.825 424.596C523.413 428.155 518.565 432.023 514.228 433.431C514.493 431.712 514.771 429.996 515.077 428.283L515.143 428.132C517.157 427.539 519.148 426.119 520.887 425.045C522.983 423.752 524.983 422.251 526.288 420.124C526.432 419.889 526.049 419.672 525.915 419.913C523.921 423.469 519.193 425.853 515.279 427.211C515.393 426.585 515.507 425.961 515.631 425.337C515.815 424.405 516.005 423.472 516.195 422.54C517.799 421.433 519.833 420.904 521.443 419.735C522.841 418.719 524.063 417.495 525.261 416.253C525.381 416.132 525.204 415.941 525.079 416.06C523.455 417.585 521.784 419.051 519.807 420.108C518.701 420.7 517.441 421.037 516.371 421.687C516.684 420.163 516.996 418.639 517.295 417.112L517.352 417.1L517.409 417.112L517.672 417.029C519.852 416.48 521.519 414.604 522.983 413.005L522.927 412.948C521.389 414.368 519.643 415.941 517.584 416.552L517.564 416.543L517.408 416.519C517.645 415.276 517.872 414.032 518.08 412.785C518.237 412.757 518.375 412.623 518.337 412.465C519.493 411.691 520.543 410.701 521.528 409.735L521.419 409.616C520.395 410.499 519.384 411.227 518.232 411.864C518.639 409.289 518.955 406.699 519.099 404.084C519.112 403.841 518.745 403.839 518.724 404.077C518.496 406.595 518.131 409.088 517.696 411.569C516.495 409.992 515.156 408.368 514.421 406.563L514.268 406.608C514.628 407.729 515.248 408.709 515.861 409.707C516.411 410.599 516.849 411.637 517.549 412.429C517.307 413.761 517.045 415.089 516.771 416.417C515.309 416.183 513.969 415.905 512.763 414.847C511.285 413.552 510.445 411.791 510.3 409.837C510.281 409.597 509.903 409.599 509.924 409.839C510.091 411.655 510.813 413.363 512.056 414.717C513.363 416.141 514.897 416.596 516.657 416.961C516.337 418.493 516.007 420.024 515.669 421.553C514.343 420.757 513.109 419.717 511.913 418.763C509.981 417.224 508.841 415.372 507.165 413.639C506.997 413.467 506.724 413.716 506.889 413.893C508.46 415.563 509.523 417.371 511.308 418.871C512.595 419.951 514.015 421.305 515.549 422.104L515.496 422.347L515.445 422.389L515.411 422.732C515.088 424.196 514.767 425.661 514.457 427.131L514.403 427.407C510.987 425.843 505.883 423.125 505.429 419.163C505.387 418.787 504.824 418.891 504.912 419.276C505.921 423.761 510.851 425.749 514.247 428.195C513.912 429.855 513.604 431.519 513.323 433.188C511.116 432.428 509.019 431.489 507.167 430.017C505.481 428.677 503.099 427.061 502.34 424.985L502.243 425.028C502.944 427.091 505.083 428.509 506.639 429.917C508.612 431.703 510.632 433.219 513.171 433.933L513.164 434.156C512.989 435.215 512.821 436.273 512.66 437.335C508.512 437.016 502.707 433.865 500.587 430.728L500.567 430.744C502.012 433.139 504.197 434.537 506.663 435.751C508.503 436.659 510.492 437.732 512.575 437.887C512.277 439.849 511.988 441.813 511.696 443.777C509.896 443.107 507.989 442.785 506.208 442.073C503.561 441.013 501.539 439.109 499.98 436.769C499.887 436.628 499.651 436.748 499.744 436.895C502.616 441.46 506.748 442.8 511.587 444.509C511.345 446.12 511.092 447.729 510.827 449.337C506.865 448.579 501.744 446.16 499.74 442.72C499.592 442.468 499.191 442.677 499.337 442.932C500.603 445.137 502.784 446.531 505.009 447.655C506.612 448.464 508.819 449.805 510.728 449.949L510.701 450.107C510.309 452.42 509.853 454.723 509.36 457.016C504.935 455.904 502.075 452.627 498.859 449.559C498.636 449.345 498.285 449.671 498.508 449.888C501.784 453.113 504.661 456.496 509.213 457.689C508.805 459.555 508.371 461.417 507.92 463.273C504.152 462.22 500.421 459.545 497.984 456.473C497.811 456.255 497.508 456.551 497.672 456.767C500.205 460.1 503.859 462.616 507.747 463.993C507.257 465.987 506.751 467.975 506.24 469.963C502.368 469.373 499.385 466.949 497.001 463.885L496.873 463.981C498.992 466.929 502.196 470.333 506.052 470.691C505.888 471.324 505.725 471.959 505.561 472.592C505.463 472.973 505.36 473.361 505.253 473.753C502.335 472.895 499.625 471.847 497.216 469.879L497.135 469.985C499.424 472.047 502.165 473.436 505.095 474.337C504.769 475.531 504.427 476.757 504.087 478.008C503.363 477.671 502.663 477.301 501.871 477.064C500.419 476.629 499.479 475.708 498.215 474.949L498.084 475.119C499.195 475.843 499.973 476.775 501.24 477.251C502.177 477.605 503.061 478.055 503.968 478.457C502.637 483.417 501.46 488.689 502.097 493.449C502.24 494.505 504.011 494.785 504.285 493.661C505.125 490.211 505.083 486.524 505.475 482.996" fill="#7070C0"/>
<g id="g294">
<g id="g296">
<path id="path308" d="M477.771 446.441C480.383 457.471 488.987 474.32 476.939 483.235C473.695 485.635 469.075 484.76 465.664 482.883C461.203 480.427 456.877 472.843 454.825 468.308C453.197 464.715 452.561 460.16 451.275 456.371C449.884 452.277 448.412 448.212 447.053 444.108C442.159 429.313 444.015 414.141 453.152 401.364C456.255 405.524 460.259 408.404 464.247 411.928C466.063 413.535 467.847 415.293 469.403 417.139C472.159 420.409 472.693 424.76 473.451 428.768C474.572 434.693 476.381 440.569 477.771 446.441" fill="url(#paint5_linear_4_4)"/>
</g>
</g>
<path id="path310" d="M474.844 484.623C474.544 483.735 474.256 482.841 473.973 481.945C475.564 481.201 476.799 479.527 477.811 478.212C479.569 475.933 480.644 473.34 481.608 470.651C481.659 470.508 481.421 470.425 481.359 470.561C480.253 472.929 479.06 475.281 477.368 477.295C476.425 478.416 475.092 480.151 473.692 481.021C473.361 479.948 473.049 478.871 472.749 477.791C474.309 476.816 475.321 475.023 476.336 473.536C478.061 471.012 479.26 468.228 480.564 465.476L480.517 465.452C478.364 469.325 476.307 474.372 472.537 477.023C472.171 475.664 471.817 474.303 471.501 472.935L471.453 472.72C475.651 469.301 477.133 464.069 479.372 459.356L479.257 459.285C476.968 463.743 475.077 468.493 471.269 471.911C470.824 469.949 470.397 467.987 469.973 466.025C473.541 462.431 475.805 458.307 477.179 453.392L477.052 453.348C475.447 458.04 472.883 461.499 469.792 465.184C469.372 463.241 468.949 461.301 468.503 459.364C469.94 457.581 471.639 456.112 472.8 454.107C473.944 452.129 474.807 450.003 475.076 447.725L474.891 447.7C474.093 452.287 470.964 455.055 468.301 458.511C467.877 456.709 467.429 454.915 466.945 453.125C469.855 449.149 473.176 445.175 473.471 440.015L473.391 440.003C472.808 444.888 469.464 448.432 466.699 452.232C466.609 451.915 466.528 451.596 466.436 451.279C465.961 449.632 465.469 447.989 464.972 446.349C466.803 444.401 468.353 442.135 469.763 439.875C470.763 438.272 471.864 436.631 472.121 434.725L471.936 434.693C471.239 438.676 467.452 442.552 464.757 445.637C464.255 443.98 463.751 442.325 463.249 440.669C465.953 436.637 469.797 433.313 470.203 428.128C470.215 427.973 469.984 427.945 469.964 428.099C469.309 432.968 465.623 436.091 463.015 439.896C462.704 438.868 462.397 437.841 462.095 436.812C465.465 433.424 468.609 427.817 469.041 423.143C469.067 422.885 468.685 422.833 468.644 423.089C467.959 427.333 465.196 432.884 461.86 435.992C461.373 434.323 460.901 432.649 460.456 430.969L460.452 430.803C462.028 429.416 463.233 427.287 464.357 425.581C465.711 423.524 466.891 421.316 467.176 418.84C467.207 418.565 466.769 418.529 466.749 418.805C466.443 422.871 463.161 427.028 460.185 429.911C460.027 429.296 459.864 428.681 459.713 428.064C459.488 427.14 459.267 426.215 459.047 425.289C460.032 423.609 461.653 422.271 462.619 420.531C463.459 419.02 464.049 417.395 464.612 415.764C464.668 415.603 464.428 415.504 464.363 415.665C463.535 417.736 462.639 419.767 461.295 421.56C460.541 422.564 459.541 423.401 458.845 424.441C458.485 422.927 458.125 421.415 457.751 419.905L457.799 419.869L457.855 419.856L458.059 419.671C459.803 418.252 460.523 415.848 461.175 413.78L461.1 413.752C460.305 415.689 459.387 417.852 457.779 419.273L457.755 419.275L457.603 419.319C457.296 418.092 456.975 416.868 456.639 415.651C456.768 415.559 456.836 415.379 456.736 415.251C457.456 414.061 457.991 412.723 458.475 411.429L458.327 411.367C457.771 412.6 457.161 413.687 456.387 414.752C455.668 412.247 454.861 409.764 453.888 407.332C453.799 407.107 453.465 407.259 453.545 407.484C454.401 409.863 455.123 412.277 455.777 414.709C454.021 413.788 452.123 412.88 450.695 411.553L450.575 411.659C451.372 412.524 452.349 413.151 453.327 413.796C454.2 414.373 455.037 415.129 456.005 415.552C456.349 416.861 456.672 418.177 456.983 419.495C455.56 419.899 454.228 420.213 452.687 419.763C450.801 419.212 449.296 417.971 448.34 416.261C448.221 416.052 447.879 416.212 448 416.42C448.917 417.997 450.295 419.243 451.992 419.945C453.779 420.685 455.361 420.449 457.111 420.036C457.467 421.561 457.812 423.087 458.153 424.616C456.613 424.456 455.056 424.032 453.569 423.673C451.169 423.092 449.355 421.895 447.103 421.031C446.877 420.945 446.735 421.288 446.96 421.377C449.088 422.229 450.813 423.419 453.068 424.027C454.691 424.461 456.548 425.089 458.276 425.167L458.329 425.409L458.303 425.471C458.244 425.624 458.311 425.737 458.416 425.795C458.741 427.257 459.068 428.723 459.408 430.184L459.473 430.457C455.717 430.481 449.944 430.173 447.861 426.771C447.663 426.448 447.197 426.78 447.439 427.093C450.248 430.732 455.555 430.453 459.664 431.237C460.063 432.884 460.485 434.523 460.935 436.155C458.615 436.397 456.316 436.432 454.016 435.877C451.923 435.375 449.081 434.916 447.517 433.355L447.445 433.433C448.953 435.008 451.489 435.391 453.493 436.011C456.037 436.797 458.509 437.319 461.112 436.895L461.2 437.1C461.489 438.133 461.784 439.164 462.084 440.195C458.189 441.655 451.597 441.249 448.352 439.3L448.34 439.323C450.66 440.883 453.233 441.229 455.979 441.291C458.031 441.336 460.287 441.469 462.241 440.731C462.799 442.636 463.367 444.537 463.929 446.441C462.016 446.593 460.151 447.107 458.236 447.212C455.388 447.368 452.752 446.496 450.352 445.032C450.207 444.944 450.043 445.151 450.189 445.247C454.72 448.173 459.029 447.643 464.139 447.151C464.6 448.713 465.052 450.279 465.488 451.848C461.577 452.832 455.913 452.803 452.644 450.528C452.404 450.361 452.129 450.723 452.368 450.892C454.448 452.356 457.013 452.699 459.504 452.779C461.299 452.836 463.865 453.121 465.656 452.445L465.7 452.599C466.321 454.861 466.879 457.141 467.399 459.429C462.917 460.289 458.941 458.525 454.732 457.1C454.439 457.001 454.259 457.444 454.553 457.548C458.884 459.088 462.92 460.941 467.551 460.1C467.969 461.965 468.361 463.836 468.736 465.709C464.875 466.344 460.364 465.495 456.859 463.739C456.609 463.613 456.459 464.011 456.699 464.137C460.403 466.088 464.775 466.828 468.881 466.436C469.28 468.449 469.66 470.467 470.035 472.483C466.276 473.583 462.549 472.644 459.095 470.873L459.021 471.015C462.185 472.792 466.527 474.525 470.172 473.221C470.292 473.865 470.411 474.509 470.529 475.153C470.601 475.541 470.672 475.937 470.741 476.336C467.732 476.789 464.833 476.983 461.819 476.216L461.791 476.347C464.736 477.249 467.807 477.352 470.844 476.932C471.052 478.151 471.259 479.409 471.479 480.685C470.681 480.685 469.889 480.645 469.072 480.764C467.572 480.983 466.331 480.545 464.863 480.391C464.729 480.376 464.68 480.58 464.817 480.599C466.129 480.788 467.229 481.304 468.58 481.201C469.579 481.127 470.569 481.161 471.56 481.143C472.447 486.2 473.604 491.476 476.193 495.524C476.767 496.42 478.491 495.927 478.264 494.793C477.571 491.309 475.975 487.985 474.844 484.623" fill="#7070C0"/>
<g id="g312">
<g id="g314">
<path id="path326" d="M503.223 437.893C503.843 451.907 510.403 474.383 493.692 482.428C489.191 484.595 483.777 482.464 480.067 479.392C475.211 475.372 471.708 465.151 470.263 459.164C469.117 454.419 469.397 448.735 468.711 443.829C467.969 438.531 467.12 433.248 466.419 427.943C463.895 408.825 469.663 390.809 483.729 377.393C486.539 383.168 490.74 387.596 494.769 392.805C496.608 395.179 498.368 397.728 499.833 400.332C502.427 404.945 502.068 410.36 502.061 415.407C502.053 422.868 502.892 430.432 503.223 437.893Z" fill="url(#paint6_linear_4_4)"/>
</g>
</g>
<path id="path328" d="M490.823 483.631C490.665 482.481 490.521 481.329 490.385 480.176C492.491 479.639 494.38 477.888 495.916 476.527C498.58 474.163 500.488 471.257 502.281 468.213C502.376 468.051 502.107 467.896 501.999 468.045C500.107 470.669 498.111 473.252 495.589 475.307C494.184 476.452 492.161 478.253 490.256 478.985C490.104 477.605 489.972 476.224 489.859 474.84C491.981 474.019 493.627 472.071 495.204 470.5C497.885 467.831 499.988 464.723 502.209 461.68L502.157 461.639C498.644 465.851 494.975 471.509 489.78 473.859C489.647 472.123 489.533 470.385 489.467 468.648L489.457 468.376C495.353 465.192 498.364 459.175 502.179 453.964L502.056 453.852C498.239 458.74 494.84 464.077 489.421 467.351C489.335 464.863 489.269 462.377 489.209 459.895C494.377 456.353 498.084 451.863 500.892 446.205L500.749 446.123C497.711 451.456 493.793 455.067 489.183 458.829C489.123 456.371 489.057 453.915 488.964 451.459C491.123 449.623 493.528 448.229 495.404 446.06C497.252 443.92 498.795 441.535 499.648 438.829C499.695 438.688 499.48 438.617 499.428 438.756C497.399 444.145 492.951 446.788 488.915 450.372C488.817 448.085 488.689 445.799 488.513 443.512C492.971 439.353 497.928 435.289 499.481 429.084L499.388 429.051C497.548 434.856 492.661 438.389 488.42 442.369C488.387 441.963 488.36 441.556 488.321 441.148C488.125 439.036 487.908 436.925 487.685 434.816C490.36 432.872 492.769 430.475 495.007 428.055C496.593 426.337 498.313 424.597 499.067 422.341C499.113 422.199 498.903 422.119 498.849 422.259C497.079 426.939 491.577 430.776 487.588 433.901C487.361 431.771 487.131 429.641 486.904 427.513C491.125 423.237 496.568 420.087 498.261 413.876C498.311 413.692 498.037 413.603 497.976 413.787C496.055 419.552 490.849 422.497 486.797 426.519C486.659 425.197 486.524 423.877 486.395 422.556C491.276 419.219 496.396 413.131 498.005 407.548C498.093 407.241 497.643 407.089 497.532 407.391C495.717 412.392 491.075 418.5 486.297 421.505C486.093 419.363 485.907 417.22 485.753 415.073L485.788 414.869C488.025 413.548 489.983 411.241 491.744 409.427C493.867 407.24 495.811 404.829 496.732 401.884C496.833 401.559 496.308 401.415 496.22 401.744C494.908 406.615 489.957 410.908 485.671 413.725C485.62 412.94 485.565 412.156 485.525 411.369C485.464 410.195 485.409 409.019 485.356 407.843C486.943 406.028 489.224 404.776 490.801 402.885C492.171 401.243 493.265 399.404 494.328 397.552C494.433 397.368 494.164 397.193 494.048 397.373C492.563 399.697 491.003 401.961 488.952 403.831C487.805 404.875 486.395 405.663 485.307 406.764C485.221 404.841 485.133 402.917 485.028 400.997L485.092 400.965L485.165 400.961C485.305 400.953 485.399 400.88 485.456 400.784C487.904 399.464 489.336 396.705 490.608 394.344L490.524 394.293C489.109 396.464 487.492 398.879 485.207 400.236L485.179 400.232L484.983 400.251C484.893 398.688 484.788 397.127 484.659 395.568C484.84 395.485 484.964 395.283 484.871 395.105C486.023 393.824 486.983 392.32 487.871 390.861L487.704 390.751C486.744 392.121 485.751 393.301 484.563 394.417C484.269 391.203 483.863 388 483.243 384.817C483.185 384.524 482.745 384.632 482.792 384.923C483.281 388.015 483.597 391.116 483.831 394.224C481.911 392.696 479.812 391.153 478.383 389.209L478.212 389.309C478.983 390.547 480.025 391.535 481.063 392.545C481.992 393.449 482.835 394.563 483.915 395.301C484.028 396.972 484.116 398.645 484.191 400.32C482.364 400.481 480.673 400.556 478.904 399.652C476.74 398.547 475.196 396.688 474.429 394.388C474.335 394.107 473.88 394.223 473.98 394.504C474.731 396.633 476.116 398.465 478.017 399.712C480.019 401.025 481.996 401.105 484.219 401.009C484.299 402.944 484.365 404.88 484.425 406.817C482.591 406.265 480.796 405.391 479.072 404.609C476.288 403.348 474.359 401.472 471.821 399.901C471.568 399.744 471.315 400.128 471.568 400.289C473.959 401.816 475.78 403.664 478.38 404.921C480.251 405.828 482.364 407.023 484.447 407.516L484.457 407.821L484.409 407.889C484.303 408.063 484.359 408.217 484.472 408.309C484.528 410.165 484.587 412.023 484.661 413.876L484.68 414.224C480.107 413.384 473.159 411.672 471.416 407.055C471.249 406.616 470.605 406.912 470.827 407.348C473.399 412.423 479.916 413.312 484.731 415.217C484.832 417.309 484.968 419.401 485.137 421.489C482.259 421.248 479.457 420.756 476.789 419.551C474.361 418.455 471.012 417.239 469.472 414.977L469.367 415.057C470.836 417.32 473.831 418.373 476.124 419.589C479.035 421.136 481.917 422.343 485.18 422.429L485.24 422.699C485.353 424.023 485.472 425.344 485.597 426.665C480.525 427.54 472.605 425.521 469.111 422.399L469.089 422.424C471.551 424.859 474.597 425.875 477.921 426.584C480.407 427.115 483.119 427.8 485.664 427.353C485.901 429.799 486.151 432.244 486.396 434.689C484.032 434.429 481.648 434.621 479.296 434.305C475.797 433.837 472.795 432.167 470.213 429.831C470.059 429.691 469.812 429.904 469.968 430.053C474.799 434.66 480.16 435.015 486.485 435.599C486.685 437.605 486.871 439.613 487.039 441.623C482.056 441.913 475.176 440.565 471.729 437.044C471.476 436.787 471.057 437.16 471.309 437.421C473.499 439.683 476.537 440.695 479.548 441.367C481.716 441.853 484.771 442.793 487.104 442.387L487.121 442.584C487.353 445.479 487.503 448.379 487.605 451.281C481.96 451.288 477.533 448.221 472.745 445.516C472.413 445.328 472.091 445.824 472.424 446.02C477.333 448.895 481.811 452.081 487.636 452.132C487.711 454.495 487.755 456.86 487.776 459.225C482.936 459.103 477.648 457.027 473.793 454.079C473.52 453.869 473.245 454.316 473.508 454.527C477.559 457.756 482.703 459.668 487.787 460.141C487.804 462.683 487.8 465.221 487.788 467.76C482.964 468.227 478.651 466.223 474.861 463.271L474.737 463.424C478.172 466.319 483.049 469.431 487.784 468.691C487.78 469.5 487.776 470.311 487.771 471.121C487.768 471.609 487.761 472.107 487.753 472.608C483.991 472.463 480.421 472.027 476.935 470.396L476.869 470.548C480.243 472.327 483.953 473.163 487.741 473.357C487.712 474.887 487.673 476.464 487.645 478.065C486.675 477.88 485.72 477.649 484.699 477.605C482.824 477.524 481.417 476.704 479.671 476.176C479.511 476.128 479.404 476.363 479.567 476.419C481.117 476.952 482.335 477.833 483.999 478.023C485.232 478.161 486.428 478.433 487.637 478.64C487.543 484.996 487.731 491.677 489.94 497.196C490.429 498.42 492.639 498.219 492.628 496.788C492.589 492.393 491.419 487.981 490.823 483.631" fill="#7070C0"/>
<path id="path330" d="M512.447 488.88L511.828 500.271L510.86 518.008L509.273 547.151H469.817L468.232 518.008L467.263 500.271L466.644 488.88H512.447Z" fill="#92A6B3"/>
<path id="path332" d="M511.828 500.271L511.7 502.555L511.575 504.919L510.86 518.008H468.232L467.517 504.919L467.391 502.555L467.263 500.271H511.828Z" fill="#A4B7C7"/>
<path id="path334" d="M511.7 502.555L511.575 504.919H467.517L467.391 502.555H511.7" fill="#92A6B3"/>
<g id="brazo__izq">
<path id="path214" d="M308.615 338.329L308.337 347.66H274.252C274.252 347.66 277.64 334.345 286.864 334.345C296.088 334.345 299.645 339.224 299.645 339.224L308.615 338.329" fill="url(#paint7_radial_4_4)"/>
<path id="path236" d="M397.895 332.748L364.513 320.924C362.084 325.463 359.485 328.871 356.909 329.553C353.011 330.575 343.593 332.343 334.092 334.004C332.836 334.239 331.58 334.452 330.323 334.687C319.011 336.645 308.615 338.329 308.615 338.329L308.593 338.883V339.245L308.337 347.66V349.796C308.337 349.796 319.671 349.215 333.965 350.216C353.969 351.643 379.767 352.496 388.308 348.471C392.313 346.573 395.509 340.353 398.024 332.684L397.895 332.748Z" fill="url(#paint8_radial_4_4)"/>
</g>
</g>
<defs>
<radialGradient id="paint0_radial_4_4" cx="0" cy="0" r="1" gradientUnits="userSpaceOnUse" gradientTransform="translate(370.027 256.505) scale(17.234 17.234)">
<stop stop-color="#FABDA6"/>
<stop offset="1" stop-color="#F9AD90"/>
</radialGradient>
<radialGradient id="paint1_radial_4_4" cx="0" cy="0" r="1" gradientUnits="userSpaceOnUse" gradientTransform="translate(360.056 225.311) rotate(-12.1516) scale(27.1702 27.1702)">
<stop stop-color="#FABDA6"/>
<stop offset="1" stop-color="#F9AD90"/>
</radialGradient>
<radialGradient id="paint2_radial_4_4" cx="0" cy="0" r="1" gradientUnits="userSpaceOnUse" gradientTransform="translate(333.284 516.731) scale(10.8345 10.8345)">
<stop stop-color="#FABDA6"/>
<stop offset="1" stop-color="#F9AD90"/>
</radialGradient>
<radialGradient id="paint3_radial_4_4" cx="0" cy="0" r="1" gradientUnits="userSpaceOnUse" gradientTransform="translate(264.665 519.448) scale(9.86871)">
<stop stop-color="#FABDA6"/>
<stop offset="1" stop-color="#F9AD90"/>
</radialGradient>
<linearGradient id="paint4_linear_4_4" x1="511.825" y1="398.364" x2="511.829" y2="482.765" gradientUnits="userSpaceOnUse">
<stop stop-color="#010444"/>
<stop offset="1" stop-color="#523EA0"/>
</linearGradient>
<linearGradient id="paint5_linear_4_4" x1="444.88" y1="405.216" x2="480.506" y2="481.729" gradientUnits="userSpaceOnUse">
<stop stop-color="#010444"/>
<stop offset="1" stop-color="#523EA0"/>
</linearGradient>
<linearGradient id="paint6_linear_4_4" x1="472.784" y1="380.16" x2="498.376" y2="481.427" gradientUnits="userSpaceOnUse">
<stop stop-color="#010444"/>
<stop offset="1" stop-color="#523EA0"/>
</linearGradient>
<radialGradient id="paint7_radial_4_4" cx="0" cy="0" r="1" gradientUnits="userSpaceOnUse" gradientTransform="translate(324.748 334.263) rotate(9.121) scale(55.259 55.2589)">
<stop stop-color="#FABDA6"/>
<stop offset="1" stop-color="#F9AD90"/>
</radialGradient>
<radialGradient id="paint8_radial_4_4" cx="0" cy="0" r="1" gradientUnits="userSpaceOnUse" gradientTransform="translate(324.748 334.263) rotate(9.12105) scale(55.2586 55.2586)">
<stop stop-color="#FABDA6"/>
<stop offset="1" stop-color="#F9AD90"/>
</radialGradient>
</defs>
</svg>
