<svg width="50" height="50" viewBox="0 0 50 50" fill="none" xmlns="http://www.w3.org/2000/svg">
<path d="M41.6667 0H8.33333C6.1232 0 4.00358 0.65848 2.44078 1.83058C0.877973 3.00269 0 4.5924 0 6.25V43.75C0 45.4076 0.877973 46.9973 2.44078 48.1694C4.00358 49.3415 6.1232 50 8.33333 50H41.6667C43.8768 50 45.9964 49.3415 47.5592 48.1694C49.122 46.9973 50 45.4076 50 43.75V6.25C50 4.5924 49.122 3.00269 47.5592 1.83058C45.9964 0.65848 43.8768 0 41.6667 0V0ZM19.3583 17.6437C19.552 17.4985 19.782 17.3832 20.0351 17.3046C20.2881 17.226 20.5594 17.1855 20.8333 17.1855C21.1073 17.1855 21.3785 17.226 21.6316 17.3046C21.8847 17.3832 22.1146 17.4985 22.3083 17.6437C22.502 17.789 22.6557 17.9615 22.7605 18.1513C22.8653 18.3411 22.9193 18.5446 22.9193 18.75C22.9193 18.9554 22.8653 19.1589 22.7605 19.3487C22.6557 19.5385 22.502 19.711 22.3083 19.8563L15.4458 25L22.3083 30.1437C22.6995 30.4371 22.9193 30.8351 22.9193 31.25C22.9193 31.6649 22.6995 32.0629 22.3083 32.3563C21.9171 32.6496 21.3866 32.8145 20.8333 32.8145C20.2801 32.8145 19.7495 32.6496 19.3583 32.3563L11.025 26.1063C10.831 25.9611 10.6771 25.7887 10.572 25.5989C10.467 25.409 10.4129 25.2055 10.4129 25C10.4129 24.7945 10.467 24.591 10.572 24.4011C10.6771 24.2113 10.831 24.0389 11.025 23.8937L19.3583 17.6437V17.6437ZM30.6417 17.6437L38.975 23.8937C39.169 24.0389 39.3229 24.2113 39.428 24.4011C39.533 24.591 39.5871 24.7945 39.5871 25C39.5871 25.2055 39.533 25.409 39.428 25.5989C39.3229 25.7887 39.169 25.9611 38.975 26.1063L30.6417 32.3563C30.448 32.5015 30.218 32.6168 29.9649 32.6954C29.7118 32.774 29.4406 32.8145 29.1667 32.8145C28.8927 32.8145 28.6215 32.774 28.3684 32.6954C28.1153 32.6168 27.8854 32.5015 27.6917 32.3563C27.498 32.211 27.3443 32.0385 27.2395 31.8487C27.1347 31.6589 27.0807 31.4554 27.0807 31.25C27.0807 31.0446 27.1347 30.8411 27.2395 30.6513C27.3443 30.4615 27.498 30.289 27.6917 30.1437L34.5542 25L27.6917 19.8563C27.3005 19.5629 27.0807 19.1649 27.0807 18.75C27.0807 18.3351 27.3005 17.9371 27.6917 17.6437C28.0829 17.3504 28.6134 17.1855 29.1667 17.1855C29.7199 17.1855 30.2505 17.3504 30.6417 17.6437V17.6437Z" fill="#ECA400"/>
</svg>
