<svg width="356" height="75" viewBox="0 0 356 75" fill="none" xmlns="http://www.w3.org/2000/svg">
<g clip-path="url(#clip0_4_7)">
<path d="M16.1423 47.8413C16.2948 47.9785 16.4729 48.0844 16.6663 48.1528C16.8598 48.2213 17.0648 48.2509 17.2698 48.2401C17.4747 48.2293 17.6755 48.1783 17.8607 48.0899C18.0458 48.0015 18.2118 47.8775 18.3491 47.7249C18.4863 47.5724 18.5922 47.3943 18.6606 47.2008C18.7291 47.0074 18.7587 46.8023 18.7479 46.5974C18.7371 46.3925 18.6861 46.1917 18.5977 46.0065C18.5093 45.8213 18.3853 45.6554 18.2327 45.5181L3.89824 32.6172L18.2327 19.7163C18.5408 19.4391 18.7261 19.0508 18.7479 18.637C18.7698 18.2231 18.6263 17.8175 18.3491 17.5095C18.0719 17.2014 17.6836 17.0161 17.2698 16.9942C16.8559 16.9724 16.4503 17.1159 16.1423 17.3931L0.517269 31.4556C0.354457 31.6022 0.224272 31.7813 0.135159 31.9814C0.0460464 32.1815 -3.8147e-06 32.3981 -3.8147e-06 32.6172C-3.8147e-06 32.8362 0.0460464 33.0529 0.135159 33.253C0.224272 33.4531 0.354457 33.6322 0.517269 33.7788L16.1423 47.8413Z" fill="#343A40"/>
<path d="M86.7187 67.1875C88.79 67.1852 90.7758 66.3613 92.2404 64.8967C93.7051 63.4321 94.5289 61.4463 94.5312 59.375V42.4393L91.4062 45.2518V57.8125H8.59375V45.2518L5.46875 42.4393V59.375C5.47108 61.4463 6.29493 63.4321 7.75956 64.8967C9.22418 66.3613 11.21 67.1852 13.2812 67.1875H39.0625V71.875H31.25C30.8356 71.875 30.4382 72.0396 30.1451 72.3326C29.8521 72.6257 29.6875 73.0231 29.6875 73.4375C29.6875 73.8519 29.8521 74.2493 30.1451 74.5424C30.4382 74.8354 30.8356 75 31.25 75H68.75C69.1644 75 69.5618 74.8354 69.8549 74.5424C70.1479 74.2493 70.3125 73.8519 70.3125 73.4375C70.3125 73.0231 70.1479 72.6257 69.8549 72.3326C69.5618 72.0396 69.1644 71.875 68.75 71.875H60.9375V67.1875H86.7187ZM57.8125 71.875H42.1875V67.1875H57.8125V71.875ZM13.2812 64.0625C12.3126 64.0619 11.3679 63.7611 10.5772 63.2015C9.78654 62.6419 9.18878 61.8509 8.86621 60.9375H91.1338C90.8112 61.8509 90.2135 62.6419 89.4228 63.2015C88.6321 63.7611 87.6874 64.0619 86.7187 64.0625H13.2812Z" fill="#343A40"/>
<path d="M8.59375 7.8125C8.59375 6.5693 9.08761 5.37701 9.96668 4.49794C10.8458 3.61886 12.038 3.125 13.2812 3.125H86.7187C87.9619 3.125 89.1542 3.61886 90.0333 4.49794C90.9124 5.37701 91.4062 6.5693 91.4062 7.8125V19.9826L94.5312 22.7951V7.8125C94.5289 5.74121 93.7051 3.75543 92.2404 2.29081C90.7758 0.826187 88.79 0.0023366 86.7187 0H13.2812C11.21 0.0023366 9.22418 0.826187 7.75956 2.29081C6.29493 3.75543 5.47108 5.74121 5.46875 7.8125V22.7951L8.59375 19.9826V7.8125Z" fill="#343A40"/>
<path d="M100 32.6172C100 32.3981 99.9539 32.1815 99.8648 31.9814C99.7757 31.7813 99.6455 31.6022 99.4827 31.4556L83.8577 17.3931C83.5497 17.1159 83.1441 16.9724 82.7302 16.9942C82.3164 17.0161 81.9281 17.2014 81.6509 17.5095C81.3737 17.8175 81.2302 18.2231 81.2521 18.637C81.2739 19.0508 81.4592 19.439 81.7673 19.7163L96.1017 32.6172L81.7673 45.5181C81.4592 45.7953 81.2739 46.1836 81.2521 46.5974C81.2302 47.0113 81.3737 47.4168 81.6509 47.7249C81.9281 48.033 82.3164 48.2183 82.7302 48.2401C83.1441 48.2619 83.5497 48.1185 83.8577 47.8413L99.4827 33.7788C99.6455 33.6322 99.7757 33.453 99.8648 33.2529C99.9539 33.0528 100 32.8362 100 32.6172Z" fill="#343A40"/>
<path d="M25.7812 25H37.5C37.9144 25 38.3118 24.8354 38.6049 24.5424C38.8979 24.2493 39.0625 23.8519 39.0625 23.4375C39.0625 23.0231 38.8979 22.6257 38.6049 22.3326C38.3118 22.0396 37.9144 21.875 37.5 21.875H25.7812C25.3668 21.875 24.9694 22.0396 24.6764 22.3326C24.3834 22.6257 24.2187 23.0231 24.2187 23.4375C24.2187 23.8519 24.3834 24.2493 24.6764 24.5424C24.9694 24.8354 25.3668 25 25.7812 25Z" fill="#343A40"/>
<path d="M58.5937 35.9375C58.5937 35.5231 58.4291 35.1257 58.1361 34.8327C57.8431 34.5396 57.4456 34.375 57.0312 34.375H52.3437C51.9293 34.375 51.5319 34.5396 51.2389 34.8326C50.9459 35.1257 50.7812 35.5231 50.7812 35.9375C50.7812 36.3519 50.9459 36.7493 51.2389 37.0424C51.5319 37.3354 51.9293 37.5 52.3437 37.5H57.0312C57.4456 37.5 57.8431 37.3354 58.1361 37.0423C58.4291 36.7493 58.5937 36.3519 58.5937 35.9375Z" fill="#343A40"/>
<path d="M60.1562 43.75H64.8437C65.2581 43.75 65.6556 43.5854 65.9486 43.2924C66.2416 42.9993 66.4062 42.6019 66.4062 42.1875C66.4062 41.7731 66.2416 41.3757 65.9486 41.0826C65.6556 40.7896 65.2581 40.625 64.8437 40.625H60.1562C59.7418 40.625 59.3444 40.7896 59.0514 41.0826C58.7584 41.3757 58.5937 41.7731 58.5937 42.1875C58.5937 42.6019 58.7584 42.9993 59.0514 43.2924C59.3444 43.5854 59.7418 43.75 60.1562 43.75Z" fill="#343A40"/>
<path d="M25.7812 43.75H30.4687C30.8831 43.75 31.2806 43.5854 31.5736 43.2924C31.8666 42.9993 32.0312 42.6019 32.0312 42.1875C32.0312 41.7731 31.8666 41.3757 31.5736 41.0826C31.2806 40.7896 30.8831 40.625 30.4687 40.625H25.7812C25.3668 40.625 24.9694 40.7896 24.6764 41.0826C24.3834 41.3757 24.2187 41.7731 24.2187 42.1875C24.2187 42.6019 24.3834 42.9993 24.6764 43.2924C24.9694 43.5854 25.3668 43.75 25.7812 43.75Z" fill="#343A40"/>
<path d="M25.7812 31.25H53.9062C54.3206 31.25 54.7181 31.0854 55.0111 30.7924C55.3041 30.4993 55.4687 30.1019 55.4687 29.6875C55.4687 29.2731 55.3041 28.8757 55.0111 28.5826C54.7181 28.2896 54.3206 28.125 53.9062 28.125H25.7812C25.3668 28.125 24.9694 28.2896 24.6764 28.5826C24.3834 28.8757 24.2187 29.2731 24.2187 29.6875C24.2187 30.1019 24.3834 30.4993 24.6764 30.7924C24.9694 31.0854 25.3668 31.25 25.7812 31.25Z" fill="#343A40"/>
<path d="M60.1562 31.25H75.7812C76.1956 31.25 76.5931 31.0854 76.8861 30.7924C77.1791 30.4993 77.3437 30.1019 77.3437 29.6875C77.3437 29.2731 77.1791 28.8757 76.8861 28.5826C76.5931 28.2896 76.1956 28.125 75.7812 28.125H60.1562C59.7418 28.125 59.3444 28.2896 59.0514 28.5826C58.7584 28.8757 58.5937 29.2731 58.5937 29.6875C58.5937 30.1019 58.7584 30.4993 59.0514 30.7924C59.3444 31.0854 59.7418 31.25 60.1562 31.25Z" fill="#343A40"/>
<path d="M80.4687 35.9375C80.4687 35.5231 80.3041 35.1257 80.0111 34.8327C79.7181 34.5396 79.3206 34.375 78.9062 34.375H63.2812C62.8668 34.375 62.4694 34.5396 62.1764 34.8326C61.8834 35.1257 61.7187 35.5231 61.7187 35.9375C61.7187 36.3519 61.8834 36.7493 62.1764 37.0424C62.4694 37.3354 62.8668 37.5 63.2812 37.5H78.9062C79.3206 37.5 79.7181 37.3354 80.0111 37.0423C80.3041 36.7493 80.4687 36.3519 80.4687 35.9375Z" fill="#343A40"/>
<path d="M36.7187 43.75H53.9062C54.3206 43.75 54.7181 43.5854 55.0111 43.2924C55.3041 42.9993 55.4687 42.6019 55.4687 42.1875C55.4687 41.7731 55.3041 41.3757 55.0111 41.0826C54.7181 40.7896 54.3206 40.625 53.9062 40.625H36.7187C36.3043 40.625 35.9069 40.7896 35.6139 41.0826C35.3209 41.3757 35.1562 41.7731 35.1562 42.1875C35.1562 42.6019 35.3209 42.9993 35.6139 43.2924C35.9069 43.5854 36.3043 43.75 36.7187 43.75Z" fill="#343A40"/>
<path d="M25.7812 37.5H46.0937C46.5081 37.5 46.9056 37.3354 47.1986 37.0424C47.4916 36.7493 47.6562 36.3519 47.6562 35.9375C47.6562 35.5231 47.4916 35.1257 47.1986 34.8326C46.9056 34.5396 46.5081 34.375 46.0937 34.375H25.7812C25.3668 34.375 24.9694 34.5396 24.6764 34.8326C24.3834 35.1257 24.2187 35.5231 24.2187 35.9375C24.2187 36.3519 24.3834 36.7493 24.6764 37.0424C24.9694 37.3354 25.3668 37.5 25.7812 37.5Z" fill="#343A40"/>
<path d="M123 5H120V71H123V5Z" fill="#343A40"/>
<path d="M138.325 22.6044C140.836 22.5424 142.982 22.4959 144.764 22.4649C146.546 22.4339 147.98 22.4184 149.065 22.4184C152.443 22.4184 155.101 23.1235 157.038 24.5337C158.975 25.9439 159.943 28.0592 159.943 30.8796C159.943 32.2433 159.556 33.514 158.781 34.6918C158.006 35.8695 157.014 36.7218 155.806 37.2487C156.581 37.4967 157.317 37.8918 158.014 38.4342C158.711 38.9766 159.308 39.612 159.804 40.3403C160.3 41.0686 160.695 41.859 160.989 42.7113C161.284 43.5636 161.431 44.4392 161.431 45.338C161.431 48.5303 160.416 50.8935 158.386 52.4277C156.356 53.9619 153.481 54.729 149.762 54.729C148.615 54.729 147.097 54.7135 145.206 54.6825C143.315 54.6515 141.022 54.605 138.325 54.543L138 54.2176V22.9298L138.325 22.6044ZM149.204 40.4565H145.345V49.5221C146.151 49.4911 147.058 49.4911 148.065 49.5221C149.072 49.5531 150.01 49.4756 150.878 49.2896C151.746 49.1037 152.474 48.6543 153.063 47.9414C153.652 47.2286 153.946 46.2368 153.946 44.9661C153.946 43.7573 153.566 42.7035 152.807 41.8047C152.048 40.9059 150.847 40.4565 149.204 40.4565ZM145.345 27.6718V35.1567H148.646C150.134 35.1567 151.18 34.7925 151.784 34.0642C152.389 33.3358 152.691 32.4448 152.691 31.391C152.691 30.3372 152.381 29.4616 151.761 28.7643C151.141 28.0669 150.103 27.7183 148.646 27.7183H146.763C146.763 27.7183 146.291 27.7028 145.345 27.6718ZM173.89 45.059L173.844 48.4063V48.4528C175.269 48.3908 176.416 48.3598 177.284 48.3598H188.07C188.07 49.5066 188.023 50.3899 187.93 51.0098C187.558 53.3962 185.978 54.5895 183.188 54.5895H170.822C169.489 54.5895 168.443 54.2021 167.684 53.4272C166.925 52.6524 166.545 51.5986 166.545 50.2659V23.0228L166.87 22.6974H186.907C187.093 23.5962 187.186 24.5724 187.186 25.6262C187.186 26.68 186.969 27.7803 186.536 28.927H173.844L173.89 32.2743V35.5286C174.696 35.4976 175.75 35.4821 177.052 35.4821H184.165C184.444 36.3499 184.583 37.3417 184.583 38.4575C184.583 39.5732 184.444 40.596 184.165 41.5258H173.89V45.059ZM190.394 51.7071C190.487 50.6843 190.805 49.6615 191.347 48.6388C191.89 47.616 192.533 46.7792 193.277 46.1283C196.593 48.1429 199.739 49.1502 202.714 49.1502C204.016 49.1502 204.969 48.8557 205.573 48.2668C206.178 47.678 206.48 46.9496 206.48 46.0818C206.48 44.6251 205.503 43.4784 203.551 42.6416L198.065 40.3171C195.927 39.3563 194.284 38.2018 193.137 36.8536C191.99 35.5053 191.417 33.793 191.417 31.7164C191.417 30.2907 191.704 28.989 192.277 27.8112C192.85 26.6335 193.656 25.6107 194.695 24.7429C195.733 23.8751 196.965 23.201 198.391 22.7206C199.816 22.2402 201.397 22 203.132 22C206.604 22 210.106 22.8833 213.639 24.6499C213.484 27.0364 212.647 28.896 211.129 30.2287C207.967 28.7101 205.178 27.9507 202.761 27.9507C201.521 27.9507 200.591 28.2297 199.971 28.7875C199.351 29.3454 199.041 29.9808 199.041 30.6936C199.041 31.9024 199.956 32.8787 201.784 33.6225L207.363 35.9935C209.719 36.9853 211.477 38.256 212.64 39.8057C213.802 41.3553 214.383 43.153 214.383 45.1985C214.383 46.6552 214.12 47.9879 213.593 49.1966C213.066 50.4054 212.283 51.4514 211.245 52.3347C210.207 53.218 208.913 53.9076 207.363 54.4035C205.813 54.8994 204 55.1474 201.924 55.1474C197.895 55.1474 194.051 54.0006 190.394 51.7071ZM231.166 28.834L231.212 32.2743V54.45C230.159 54.636 228.903 54.729 227.447 54.729C225.99 54.729 224.766 54.636 223.774 54.45V28.834L220.799 28.8805H216.01C215.824 27.9817 215.731 26.9512 215.731 25.7889C215.731 24.6267 215.824 23.5962 216.01 22.6974H239.023C239.271 23.5032 239.395 24.4795 239.395 25.6262C239.395 26.773 239.085 27.602 238.465 28.1134C237.845 28.6248 236.853 28.8805 235.49 28.8805H234.141L231.212 28.834H231.166ZM250.134 45.059L250.087 48.4063V48.4528C251.513 48.3908 252.66 48.3598 253.528 48.3598H264.313C264.313 49.5066 264.267 50.3899 264.174 51.0098C263.802 53.3962 262.221 54.5895 259.432 54.5895H247.066C245.733 54.5895 244.687 54.2021 243.927 53.4272C243.168 52.6524 242.788 51.5986 242.788 50.2659V23.0228L243.114 22.6974H263.151C263.337 23.5962 263.43 24.5724 263.43 25.6262C263.43 26.68 263.213 27.7803 262.779 28.927H250.087L250.134 32.2743V35.5286C250.94 35.4976 251.993 35.4821 253.295 35.4821H260.408C260.687 36.3499 260.827 37.3417 260.827 38.4575C260.827 39.5732 260.687 40.596 260.408 41.5258H250.134V45.059ZM269.567 54.45V22.6974C270.527 22.5114 271.767 22.4184 273.286 22.4184C274.805 22.4184 276.06 22.5114 277.052 22.6974V54.45C276.06 54.636 274.805 54.729 273.286 54.729C271.767 54.729 270.527 54.636 269.567 54.45ZM306.991 32.5067C306.991 33.5295 306.836 34.4981 306.526 35.4124C306.216 36.3267 305.806 37.148 305.294 37.8763C304.783 38.6047 304.178 39.24 303.481 39.7824C302.784 40.3248 302.063 40.7355 301.319 41.0144C302.931 41.6033 304.124 43.029 304.899 45.2915L306.294 49.2431C306.821 50.7928 307.596 51.9396 308.618 52.6834C308.153 53.3033 307.456 53.8224 306.526 54.2408C305.596 54.6592 304.574 54.8684 303.458 54.8684C302.342 54.8684 301.474 54.5507 300.854 53.9154C300.235 53.28 299.661 52.172 299.134 50.5913L297.461 45.7099C297.12 44.7801 296.663 44.0673 296.089 43.5714C295.516 43.0755 294.656 42.8275 293.509 42.8275H291.603V54.45C290.611 54.636 289.371 54.729 287.884 54.729C286.396 54.729 285.172 54.636 284.211 54.45V22.9298L284.536 22.6044C287.233 22.5424 289.503 22.4959 291.347 22.4649C293.191 22.4339 294.64 22.4184 295.694 22.4184C297.399 22.4184 298.948 22.6276 300.343 23.046C301.738 23.4644 302.923 24.0921 303.9 24.9289C304.876 25.7657 305.635 26.8195 306.178 28.0902C306.72 29.3609 306.991 30.8331 306.991 32.5067ZM291.603 27.9972V37.1092C292.998 37.1092 294.191 37.086 295.183 37.0395C296.174 36.993 296.973 36.8071 297.577 36.4816C298.181 36.1562 298.638 35.6991 298.948 35.1102C299.258 34.5213 299.413 33.669 299.413 32.5532C299.413 29.5469 297.957 28.0437 295.043 28.0437H293.114C293.114 28.0437 292.61 28.0282 291.603 27.9972ZM319.079 45.8029C319.915 48.2204 321.604 49.4291 324.146 49.4291C325.417 49.4291 326.447 49.1114 327.238 48.4761C328.028 47.8407 328.648 47.0349 329.097 46.0586C329.547 45.0823 329.849 43.9898 330.004 42.781C330.159 41.5723 330.236 40.379 330.236 39.2013C330.236 38.1165 330.197 36.9078 330.12 35.5751C330.042 34.2424 329.818 32.9949 329.446 31.8326C329.074 30.6704 328.485 29.6941 327.679 28.9038C326.873 28.1134 325.696 27.7183 324.146 27.7183C322.658 27.7183 321.519 28.0979 320.729 28.8573C319.939 29.6166 319.35 30.5542 318.962 31.6699C318.575 32.7857 318.335 33.9712 318.242 35.2264C318.149 36.4816 318.102 37.5896 318.102 38.5504C318.102 39.9761 318.172 41.2469 318.311 42.3626C318.451 43.4784 318.707 44.6251 319.079 45.8029ZM315.313 52.2185C311.997 49.4601 310.338 44.9196 310.338 38.5969C310.338 35.8695 310.656 33.4753 311.291 31.4142C311.927 29.3532 312.841 27.6253 314.034 26.2306C315.228 24.8359 316.677 23.7821 318.381 23.0693C320.086 22.3564 322.007 22 324.146 22C326.284 22 328.214 22.3564 329.934 23.0693C331.654 23.7821 333.111 24.8436 334.304 26.2538C335.497 27.664 336.412 29.3997 337.047 31.4607C337.682 33.5218 338 35.9005 338 38.5969C338 41.2934 337.682 43.6721 337.047 45.7331C336.412 47.7942 335.497 49.5221 334.304 50.9168C333.111 52.3115 331.654 53.3653 329.934 54.0781C328.214 54.7909 326.284 55.1474 324.146 55.1474C320.613 55.1474 317.668 54.1711 315.313 52.2185Z" fill="#343A40"/>
</g>
<defs>
<clipPath id="clip0_4_7">
<rect width="356" height="75" fill="white"/>
</clipPath>
</defs>
</svg>
