<?xml version="1.0" standalone="no"?><svg xmlns:xlink="http://www.w3.org/1999/xlink" xmlns="http://www.w3.org/2000/svg" viewBox="0 0 1000 83.3259325044405" preserveAspectRatio="xMaxYMax slice"><g transform="scale(0.8880994671403197)"><rect x="0" y="0" width="1126" height="93.83333333333333" fill="#ffffff"/><rect x="0" y="0" width="93.83333333333333" height="93.83333333333333" fill="#ffffff"/><rect x="0" y="0" width="46.92" height="46.92" fill="#2b2d63"/><path d="M 0 46.92 A 46.92 46.92 0 0 0 46.92 0 L 0 0" fill="#50527e"/><rect x="46.92" y="0" width="46.92" height="46.92" fill="#f5d07c"/><path d="M 46.92 0 A 46.92 46.92 0 0 0 93.84 46.92 L 93.84 0" fill="#dbdbe5"/><rect x="0" y="46.92" width="46.92" height="46.92" fill="#f4c865"/><path d="M 0 46.92 A 46.92 46.92 0 0 1 46.92 93.84 L 0 93.84" fill="#50527e"/><rect x="46.92" y="46.92" width="46.92" height="46.92" fill="#f8dfa4"/><path d="M 46.92 93.84 A 46.92 46.92 0 0 1  93.84 46.92 L 93.84 93.84" fill="#fdf7e8"/><rect x="93.83333333333333" y="0" width="93.83333333333333" height="93.83333333333333" fill="#ffffff"/><rect x="93.83" y="0" width="46.92" height="46.92" fill="#77799b"/><polygon points="140.75,0 140.75,46.92 93.83,46.92" fill="#fae9c1"/><rect x="140.75" y="0" width="46.92" height="46.92" fill="#fbebc8"/><polygon points="140.75,0 187.67000000000002,46.92 140.75,46.92" fill="#67688f"/><rect x="93.83" y="46.92" width="46.92" height="46.92" fill="#737598"/><polygon points="93.83,46.92 140.75,46.92 140.75,93.84" fill="#eeac18"/><rect x="140.75" y="46.92" width="46.92" height="46.92" fill="#f5ce76"/><polygon points="140.75,46.92 187.67000000000002,46.92 140.75,93.84" fill="#3b3d6e"/><rect x="187.66666666666666" y="0" width="93.83333333333333" height="93.83333333333333" fill="#ffffff"/><rect x="187.67" y="0" width="46.92" height="46.92" fill="#f3c761"/><path d="M 187.67 0 A 46.92 46.92 0 0 0 234.58999999999997 46.92 L 234.58999999999997 0" fill="#fef9ed"/><rect x="234.58" y="0" width="46.92" height="46.92" fill="#f6d589"/><path d="M 234.58 46.92 A 46.92 46.92 0 0 0 281.5 0 L 234.58 0" fill="#b9bacb"/><rect x="187.67" y="46.92" width="46.92" height="46.92" fill="#f7d790"/><path d="M 187.67 93.84 A 46.92 46.92 0 0 1  234.58999999999997 46.92 L 234.58999999999997 93.84" fill="#eca502"/><rect x="234.58" y="46.92" width="46.92" height="46.92" fill="#fcf2da"/><path d="M 234.58 46.92 A 46.92 46.92 0 0 1 281.5 93.84 L 234.58 93.84" fill="#f6d487"/><rect x="281.5" y="0" width="93.83333333333333" height="93.83333333333333" fill="#ffffff"/><rect x="281.5" y="0" width="46.92" height="46.92" fill="#adaec3"/><polygon points="328.42,0 328.42,46.92 281.5,46.92" fill="#d1d2dd"/><rect x="328.42" y="0" width="46.92" height="46.92" fill="#fffefd"/><polygon points="328.42,0 375.34000000000003,46.92 328.42,46.92" fill="#9091ad"/><rect x="281.5" y="46.92" width="46.92" height="46.92" fill="#8486a5"/><polygon points="281.5,46.92 328.42,46.92 328.42,93.84" fill="#f0b93a"/><rect x="328.42" y="46.92" width="46.92" height="46.92" fill="#8d8fab"/><polygon points="328.42,46.92 375.34000000000003,46.92 328.42,93.84" fill="#fffffe"/><rect x="375.3333333333333" y="0" width="93.83333333333333" height="93.83333333333333" fill="#ffffff"/><rect x="375.33" y="0" width="46.92" height="46.92" fill="#6b6d92"/><path d="M 375.33 0 A 46.92 46.92 0 0 0 422.25 46.92 L 422.25 0" fill="#f7d891"/><rect x="422.25" y="0" width="46.92" height="46.92" fill="#cdcdda"/><path d="M 422.25 46.92 A 46.92 46.92 0 0 0 469.17 0 L 422.25 0" fill="#fbebc7"/><rect x="375.33" y="46.92" width="46.92" height="46.92" fill="#65678e"/><path d="M 375.33 93.84 A 46.92 46.92 0 0 1  422.25 46.92 L 422.25 93.84" fill="#f2c04f"/><rect x="422.25" y="46.92" width="46.92" height="46.92" fill="#eeab15"/><path d="M 422.25 46.92 A 46.92 46.92 0 0 1 469.17 93.84 L 422.25 93.84" fill="#cacad8"/><rect x="469.16666666666663" y="0" width="93.83333333333333" height="93.83333333333333" fill="#ffffff"/><rect x="469.17" y="0" width="46.92" height="46.92" fill="#f3c459"/><polygon points="516.09,0 516.09,46.92 469.17,46.92" fill="#1c1f58"/><rect x="516.08" y="0" width="46.92" height="46.92" fill="#0b0e4b"/><polygon points="516.08,0 563,46.92 516.08,46.92" fill="#c9cad8"/><rect x="469.17" y="46.92" width="46.92" height="46.92" fill="#c9cad7"/><polygon points="469.17,46.92 516.09,46.92 516.09,93.84" fill="#f3c761"/><rect x="516.08" y="46.92" width="46.92" height="46.92" fill="#2d2f64"/><polygon points="516.08,46.92 563,46.92 516.08,93.84" fill="#eaeaef"/><rect x="563" y="0" width="93.83333333333333" height="93.83333333333333" fill="#ffffff"/><rect x="563" y="0" width="46.92" height="46.92" fill="#f4c968"/><path d="M 563 0 A 46.92 46.92 0 0 1 609.92 46.92 L 563 46.92" fill="#333569"/><rect x="609.92" y="0" width="46.92" height="46.92" fill="#a8a9bf"/><path d="M 609.92 46.92 A 46.92 46.92 0 0 1  656.8399999999999 0 L 656.8399999999999 46.92" fill="#d9d9e3"/><rect x="563" y="46.92" width="46.92" height="46.92" fill="#f8dc9d"/><path d="M 563 93.84 A 46.92 46.92 0 0 0 609.92 46.92 L 563 46.92" fill="#3e4071"/><rect x="609.92" y="46.92" width="46.92" height="46.92" fill="#d5d5e0"/><path d="M 609.92 46.92 A 46.92 46.92 0 0 0 656.8399999999999 93.84 L 656.8399999999999 46.92" fill="#f2c050"/><rect x="656.8333333333333" y="0" width="93.83333333333333" height="93.83333333333333" fill="#ffffff"/><rect x="656.83" y="0" width="46.92" height="46.92" fill="#9697b1"/><path d="M 656.83 46.92 A 46.92 46.92 0 0 1 703.75 0 L 703.75 11.73 A 35.19 35.19 0 0 0 668.5600000000001 46.92" fill="#0a0d4a"/><rect x="703.75" y="0" width="46.92" height="46.92" fill="#f1ba3e"/><path d="M 703.75 0 A 46.92 46.92 0 0 1 750.67 46.92 L 738.94 46.92 A 35.19 35.19 0 0 0 703.75 11.73" fill="#60628a"/><rect x="656.83" y="46.92" width="46.92" height="46.92" fill="#ececf1"/><path d="M 656.83 46.92 A 46.92 46.92 0 0 0 703.75 93.84 L 703.75 82.11 A 35.19 35.19 0 0 1 668.5600000000001 46.92" fill="#f9e3b0"/><rect x="703.75" y="46.92" width="46.92" height="46.92" fill="#fcf1d8"/><path d="M 703.75 93.84 A 46.92 46.92 0 0 0 750.67 46.92 L 738.94 46.92 A 35.19 35.19 0 0 1 703.75 82.11" fill="#eda90f"/><rect x="750.6666666666666" y="0" width="93.83333333333333" height="93.83333333333333" fill="#ffffff"/><rect x="750.67" y="0" width="46.92" height="46.92" fill="#f3c55e"/><path d="M 750.67 0 A 46.92 46.92 0 0 0 797.5899999999999 46.92 L 797.5899999999999 0" fill="#f8dd9f"/><rect x="797.58" y="0" width="46.92" height="46.92" fill="#c4c4d3"/><path d="M 797.58 46.92 A 46.92 46.92 0 0 0 844.5 0 L 797.58 0" fill="#24275e"/><rect x="750.67" y="46.92" width="46.92" height="46.92" fill="#8e90ac"/><path d="M 750.67 93.84 A 46.92 46.92 0 0 1  797.5899999999999 46.92 L 797.5899999999999 93.84" fill="#fcefd3"/><rect x="797.58" y="46.92" width="46.92" height="46.92" fill="#fbecc9"/><path d="M 797.58 46.92 A 46.92 46.92 0 0 1 844.5 93.84 L 797.58 93.84" fill="#f6d384"/><rect x="844.5" y="0" width="93.83333333333333" height="93.83333333333333" fill="#ffffff"/><rect x="844.5" y="0" width="46.92" height="46.92" fill="#0c0f4c"/><path d="M 844.5 0 A 46.92 46.92 0 0 1 891.42 46.92 L 844.5 46.92" fill="#8a8ca9"/><rect x="891.42" y="0" width="46.92" height="46.92" fill="#474a78"/><path d="M 891.42 46.92 A 46.92 46.92 0 0 1  938.3399999999999 0 L 938.3399999999999 46.92" fill="#f6d281"/><rect x="844.5" y="46.92" width="46.92" height="46.92" fill="#f8dc9c"/><path d="M 844.5 93.84 A 46.92 46.92 0 0 0 891.42 46.92 L 844.5 46.92" fill="#edaa12"/><rect x="891.42" y="46.92" width="46.92" height="46.92" fill="#b5b6c8"/><path d="M 891.42 46.92 A 46.92 46.92 0 0 0 938.3399999999999 93.84 L 938.3399999999999 46.92" fill="#272960"/><rect x="938.3333333333333" y="0" width="93.83333333333333" height="93.83333333333333" fill="#ffffff"/><rect x="938.33" y="0" width="46.92" height="46.92" fill="#b3b4c7"/><polygon points="985.25,0 985.25,46.92 938.33,46.92" fill="#272a60"/><rect x="985.25" y="0" width="46.92" height="46.92" fill="#f8dfa5"/><polygon points="985.25,0 1032.17,46.92 985.25,46.92" fill="#050847"/><rect x="938.33" y="46.92" width="46.92" height="46.92" fill="#fae7bc"/><polygon points="938.33,46.92 985.25,46.92 985.25,93.84" fill="#757799"/><rect x="985.25" y="46.92" width="46.92" height="46.92" fill="#f9e3af"/><polygon points="985.25,46.92 1032.17,46.92 985.25,93.84" fill="#f1bd45"/><rect x="1032.1666666666665" y="0" width="93.83333333333333" height="93.83333333333333" fill="#ffffff"/><rect x="1032.17" y="0" width="46.92" height="46.92" fill="#cfd0dc"/><polygon points="1079.0900000000001,0 1079.0900000000001,46.92 1032.17,46.92" fill="#efb227"/><rect x="1079.08" y="0" width="46.92" height="46.92" fill="#393b6d"/><polygon points="1079.08,0 1126,0 1079.08,46.92" fill="#fbedcc"/><rect x="1032.17" y="46.92" width="46.92" height="46.92" fill="#f8dda1"/><polygon points="1032.17,46.92 1079.0900000000001,46.92 1079.0900000000001,93.84" fill="#edab14"/><rect x="1079.08" y="46.92" width="46.92" height="46.92" fill="#aaabc1"/><polygon points="1079.08,46.92 1126,93.84 1079.08,93.84" fill="#191b55"/></g></svg>